<svg xmlns="http://www.w3.org/2000/svg" viewBox="0 0 32 31.20567"><path d="M15.99686.39717a15.99939,15.99939,0,0,0-5.05572,31.17815c.79992.14673,1.09189-.34717,1.09189-.77114,0-.37977-.01385-1.38583-.02161-2.72089-4.45006.96677-5.389-2.1445-5.389-2.1445a4.2364,4.2364,0,0,0-1.77623-2.34013c-1.45252-.99261.1099-.97247.1099-.97247a3.3604,3.3604,0,0,1,2.45042,1.64864,3.4062,3.4062,0,0,0,4.62511,1.34633l.03071-.01707a3.4182,3.4182,0,0,1,1.01568-2.1387c-3.55243-.40374-7.287-1.77622-7.287-7.90665a6.18378,6.18378,0,0,1,1.64667-4.29283A5.75414,5.75414,0,0,1,7.59445,7.0321s1.34321-.43016,4.3993,1.64a15.16346,15.16346,0,0,1,8.01015,0c3.05422-2.07016,4.395-1.64,4.395-1.64a5.746,5.746,0,0,1,.1592,4.23381,6.17322,6.17322,0,0,1,1.64442,4.29283c0,6.14575-3.7404,7.49809-7.30433,7.89417a3.81815,3.81815,0,0,1,1.0861,2.96259c0,2.13871-.01964,3.86415-.01964,4.38868,0,.42781.28815.92553,1.1.76928A16.00028,16.00028,0,0,0,15.99686.39717Z" transform="translate(0 -0.39717)"/></svg>