<svg xmlns="http://www.w3.org/2000/svg" viewBox="0 0 32 32"><path d="M16,2.88289c4.27219,0,4.77821.0163,6.46536.09327a8.85323,8.85323,0,0,1,2.971.55093A4.95727,4.95727,0,0,1,27.27605,4.724a4.95731,4.95731,0,0,1,1.19688,1.83972,8.85332,8.85332,0,0,1,.55093,2.971c.077,1.68717.09326,2.1932.09326,6.46539s-.01629,4.77821-.09326,6.46536a8.85349,8.85349,0,0,1-.55093,2.971,5.29863,5.29863,0,0,1-3.03658,3.03658,8.85325,8.85325,0,0,1-2.971.55093c-1.6869.077-2.19288.09327-6.46536.09327s-4.77846-.01629-6.46536-.09327a8.85323,8.85323,0,0,1-2.971-.55093A4.95723,4.95723,0,0,1,4.724,27.27607a4.95723,4.95723,0,0,1-1.19688-1.83971,8.85333,8.85333,0,0,1-.55093-2.971C2.89918,20.77823,2.88289,20.2722,2.88289,16s.01629-4.77822.09327-6.46536a8.85311,8.85311,0,0,1,.55093-2.971A4.95717,4.95717,0,0,1,4.72394,4.724,4.95727,4.95727,0,0,1,6.56366,3.52709a8.8532,8.8532,0,0,1,2.971-.55093c1.68717-.077,2.1932-.09327,6.46539-.09327M16,0c-4.34535,0-4.89021.0184-6.59678.09626A11.74412,11.74412,0,0,0,5.51938.84,7.843,7.843,0,0,0,2.68545,2.68545,7.843,7.843,0,0,0,.84,5.51938,11.74412,11.74412,0,0,0,.09627,9.40323C.01841,11.1098,0,11.65465,0,16s.0184,4.89021.09626,6.59677A11.74407,11.74407,0,0,0,.84,26.48063a7.84309,7.84309,0,0,0,1.84546,2.83394A7.843,7.843,0,0,0,5.51938,31.16a11.74389,11.74389,0,0,0,3.88385.74371C11.1098,31.98162,11.65466,32,16,32s4.89021-.01839,6.59677-.09627A11.74384,11.74384,0,0,0,26.48063,31.16,8.18147,8.18147,0,0,0,31.16,26.48064a11.744,11.744,0,0,0,.74371-3.88386C31.9816,20.89022,32,20.34536,32,16s-.01841-4.89021-.09627-6.59677A11.74391,11.74391,0,0,0,31.16,5.51938a7.843,7.843,0,0,0-1.84546-2.83393A7.843,7.843,0,0,0,26.48064.84,11.74419,11.74419,0,0,0,22.59678.09627C20.89022.01841,20.34536,0,16,0Zm0,7.78378A8.21622,8.21622,0,1,0,24.21622,16,8.21622,8.21622,0,0,0,16,7.78379Zm0,13.54955A5.33334,5.33334,0,1,1,21.33334,16h0A5.33333,5.33333,0,0,1,16,21.33334ZM24.54085,5.53917a1.92,1.92,0,1,0,1.92,1.92h0a1.92,1.92,0,0,0-1.92-1.92Z" transform="translate(-0.00001 -0.00001)"/></svg>