<svg xmlns="http://www.w3.org/2000/svg" viewBox="0 0 29.5679 32"><path d="M13.92725,28.49585a1.04764,1.04764,0,1,0-.00534.00134m7.89633-.00134a1.05,1.05,0,1,0-.00533.00134m6.05892-12.21251-.208-.272c-.06134-.08-.128-.15468-.19068-.23335-.06-.08133-.12534-.15067-.188-.22534-.13867-.16-.27867-.31868-.42535-.47868l-.10134-.10668-.12133-.132-.18-.17467c-.02-.024-.04267-.04534-.06667-.07067a14.49349,14.49349,0,0,0-5.27355-3.33881l-.30668-.104c.016-.036.032-.07334.04667-.11068a5.51818,5.51818,0,0,0-3.41081-7.2203,6.85137,6.85137,0,0,0-2.28143-.40668c-.044-.14-.13334-.76937.66136-2.4641L14.21659,0l-.38268.532c-.44.60669-.864,1.19339-1.26,1.77074a2.47571,2.47571,0,0,0-1.66007-.77336L9.05238,1.41473h-.016c-.044-.004-.09334-.004-.13868-.004A2.49753,2.49753,0,0,0,6.40427,3.75082L6.28693,5.62023v.004A2.50094,2.50094,0,0,0,8.627,8.263l1.33605.08134a5.934,5.934,0,0,0,.54,3.07479,15.03921,15.03921,0,0,0-4.8802,3.31214C1.21605,19.1888,1.21605,24.069,1.21605,27.99317v2.36676l1.74007-1.84941a14.16428,14.16428,0,0,0,1.52673,3.48681H6.74561a12.263,12.263,0,0,1-2.24009-5.13088l2.55077-2.70678L5.74291,28.28118,8.063,26.59044c4.10017-2.97879,8.99238-3.66682,14.54727-2.03875a5.2816,5.2816,0,0,0,5.96425-1.67607l.13868-.22a11.10012,11.10012,0,0,1,.188,1.99475A14.15532,14.15532,0,0,1,27.06113,32h2.14809A16.47229,16.47229,0,0,0,30.784,24.65036,14.0428,14.0428,0,0,0,27.87183,16.28468ZM11.85783,8.255A9.63516,9.63516,0,0,1,13.4979,4.29485a2.12056,2.12056,0,0,0,.112.192,1.81237,1.81237,0,0,0,1.59873.8067,4.84669,4.84669,0,0,1,1.64407.30935,3.62265,3.62265,0,0,1,1.17472,6.24426l-.544-.66936-.00267-.004a1.9506,1.9506,0,0,0-3.45748,1.13738,3.6785,3.6785,0,0,1-2.17076-4.05484Zm5.7389,6.81362-.692.56669A.31016.31016,0,0,1,16.71,15.706a.30464.30464,0,0,1-.236-.11334l-.148-.18a.31743.31743,0,0,1,.04534-.44535l.68-.56L15.64465,12.6752a.40906.40906,0,0,1,.05867-.58136.407.407,0,0,1,.57869.05467l3.95083,4.8602a.412.412,0,0,1-.056.58136.46316.46316,0,0,1-.168.084.35816.35816,0,0,1-.09333.012.42051.42051,0,0,1-.32-.15067l-.39335-.48669-1.39339,1.13872a.32589.32589,0,0,1-.20534.07333.31608.31608,0,0,1-.248-.12l-.636-.772a.31936.31936,0,0,1,.04667-.448L18.16742,15.778l-.568-.71069Zm-7.2603-8.58036-1.59473-.1a.61775.61775,0,0,1-.58-.6507l.12-1.86807a.61561.61561,0,0,1,.61469-.58136h.032l1.86808.12134a.59788.59788,0,0,1,.42268.20267.61186.61186,0,0,1,.15468.448l-.00934.13467a12.35939,12.35939,0,0,0-1.03071,2.29343ZM27.03579,21.79691a3.41416,3.41416,0,0,1-3.89883.95737c-5.18154-1.52139-9.86174-1.20405-13.95791.93471l2.18142-6.831-7.055,7.479a12.32735,12.32735,0,0,1,7.67766-11.08179,6.36686,6.36686,0,0,0,2.23076,1.12138c.21334.05867.42935.09867.64.136a1.87979,1.87979,0,0,0,.28,1.87607l.1.12a1.84691,1.84691,0,0,0,.29468,1.83207l.63336.776a1.854,1.854,0,0,0,1.43872.684,1.88263,1.88263,0,0,0,1.18138-.41869l.38-.30935a2.01127,2.01127,0,0,0,1.19472.104,1.94864,1.94864,0,0,0,1.076-3.1348l-2.22676-2.74145a5.1539,5.1539,0,0,0,.544-.508c.18.04934.36135.104.53336.16.35468.12934.71069.264,1.06.42A12.734,12.734,0,0,1,25.03837,15.902c.03867.04.07867.07333.11334.11067l.22668.23334c.05066.052.10133.10534.148.16.10534.11334.21334.23334.31868.356l.168.2c.06.07067.11467.13867.17334.21334l.152.2c.05334.068.10534.136.156.20534,1.11738,1.53207,1.31606,3.10546.53869,4.20951v.00667Zm-16.7447-16.31-1.11338-.068.07067-1.11338,1.11205.068Z" transform="translate(-1.21605)"/></svg>