<svg xmlns="http://www.w3.org/2000/svg" viewBox="0 0 32 32"><path d="M21.33333,17.6655A1.6655,1.6655,0,1,1,19.66784,16,1.66548,1.66548,0,0,1,21.33333,17.6655Zm-7.33567,0a1.6655,1.6655,0,1,0-1.6655,1.66549A1.6655,1.6655,0,0,0,13.99766,17.6655Zm5.38948,3.78012a5.29344,5.29344,0,0,1-3.34971.97309,5.25913,5.25913,0,0,1-3.34971-.97309.43667.43667,0,1,0-.61754.61754h0c1.1228,1.12281,3.31228,1.21637,3.94853,1.21637s2.807-.07485,3.94854-1.21637a.48154.48154,0,0,0,.03742-.61754A.44051.44051,0,0,0,19.38714,21.44562ZM32,16A16,16,0,1,1,16,0,16,16,0,0,1,32,16Zm-5.33333,0a2.34,2.34,0,0,0-2.33918-2.33918,2.246,2.246,0,0,0-1.60936.655,11.56961,11.56961,0,0,0-6.23158-1.98363l1.06667-4.99649,3.462.72983A1.66632,1.66632,0,1,0,22.6807,6.32515a1.61865,1.61865,0,0,0-1.47836.93567l-3.87369-.82339a.46629.46629,0,0,0-.31812.05614.45553.45553,0,0,0-.18714.262l-1.179,5.5766A11.336,11.336,0,0,0,9.3193,14.31579a2.33393,2.33393,0,1,0-2.56374,3.81754,4.37765,4.37765,0,0,0-.05614.71112c0,3.593,4.17309,6.49356,9.338,6.49356s9.338-2.90058,9.338-6.49356a4.15008,4.15008,0,0,0-.05614-.6924A2.4212,2.4212,0,0,0,26.66667,16Z"/></svg>