<svg xmlns="http://www.w3.org/2000/svg" viewBox="0 0 32 32"><path d="M16,0A16,16,0,1,0,32,16,16,16,0,0,0,16,0Zm7.86147,10.96707L21.2368,23.33547c-.18333.8788-.71427,1.08907-1.45013.68306l-3.99819-2.95391-1.92181,1.86871a1.02516,1.02516,0,0,1-.8.4l.27222-4.0785-.00023-.00017.00026-.00023v-.00017l.00011.00007,7.419-6.695c.3256-.28907-.0712-.42986-.50347-.16773l-9.15639,5.77667L7.14307,16.93373c-.854-.26146-.86027-.84839.19173-1.2704l15.412-5.9428C23.4508,9.40094,24.13014,9.88973,23.86147,10.96707Z"/></svg>