<svg xmlns="http://www.w3.org/2000/svg" viewBox="0 0 32 26.0026"><path d="M10.06378,29.00129c12.076,0,18.67977-10.00456,18.67977-18.67975q0-.42647-.01876-.84877A13.3582,13.3582,0,0,0,32,6.07346,13.10533,13.10533,0,0,1,28.2297,7.107a6.588,6.588,0,0,0,2.88691-3.63172A13.15668,13.15668,0,0,1,26.9479,5.06882a6.57107,6.57107,0,0,0-11.18823,5.98749A18.63907,18.63907,0,0,1,2.22725,4.197a6.57033,6.57033,0,0,0,2.03239,8.76461,6.51707,6.51707,0,0,1-2.97352-.82128c-.00145.02739-.00145.05489-.00145.08369a6.56812,6.56812,0,0,0,5.26718,6.43644A6.55488,6.55488,0,0,1,3.587,18.773a6.57265,6.57265,0,0,0,6.13325,4.56,13.17411,13.17411,0,0,1-8.15409,2.81036A13.36739,13.36739,0,0,1,0,26.05235a18.58667,18.58667,0,0,0,10.06378,2.94894" transform="translate(0 -2.9987)"/></svg>