<svg xmlns="http://www.w3.org/2000/svg" viewBox="0 0 31.99953 27.73341"><path d="M31.9843,8.54942q-.21374,4.68141-6.52621,12.81865Q18.93222,29.8668,14.41542,29.8667q-2.797,0-4.73279-5.1758-1.29186-4.74449-2.58311-9.4891-1.43619-5.17384-3.08246-5.176A9.89767,9.89767,0,0,0,1.50585,11.536L.00024,9.59269q2.369-2.08546,4.67-4.17267,3.15933-2.73514,4.7412-2.8794,3.7359-.35952,4.59871,5.11692.9323,5.90907,1.29371,7.34848,1.07673,4.90242,2.37061,4.90032,1.00452,0,3.01715-3.1797a12.54384,12.54384,0,0,0,2.15467-4.84143q.28641-2.74457-2.15467-2.74689a5.983,5.983,0,0,0-2.36839.52579q2.35869-7.74191,9.01239-7.525Q32.26772,2.28439,31.9843,8.54942Z" transform="translate(-0.00024 -2.1333)"/></svg>