<svg xmlns="http://www.w3.org/2000/svg" viewBox="0 0 32 32"><path d="M15.984,0A16,16,0,1,0,32,16,15.99218,15.99218,0,0,0,15.984,0ZM27.072,9.6h-4.72a25.03855,25.03855,0,0,0-2.208-5.696A12.84746,12.84746,0,0,1,27.072,9.6ZM16,3.264A22.53879,22.53879,0,0,1,19.056,9.6H12.944A22.53879,22.53879,0,0,1,16,3.264ZM3.616,19.2A13.187,13.187,0,0,1,3.2,16a13.187,13.187,0,0,1,.416-3.2H9.024A26.42449,26.42449,0,0,0,8.8,16a26.42449,26.42449,0,0,0,.224,3.2Zm1.312,3.2h4.72a25.03855,25.03855,0,0,0,2.208,5.696A12.77889,12.77889,0,0,1,4.928,22.4ZM9.648,9.6H4.928a12.77889,12.77889,0,0,1,6.928-5.696A25.03855,25.03855,0,0,0,9.648,9.6ZM16,28.736A22.53879,22.53879,0,0,1,12.944,22.4h6.112A22.53879,22.53879,0,0,1,16,28.736ZM19.744,19.2H12.256A23.54046,23.54046,0,0,1,12,16a23.336,23.336,0,0,1,.256-3.2h7.488A23.336,23.336,0,0,1,20,16,23.54046,23.54046,0,0,1,19.744,19.2Zm.4,8.896A25.03855,25.03855,0,0,0,22.352,22.4h4.72A12.84746,12.84746,0,0,1,20.144,28.096ZM22.976,19.2A26.42449,26.42449,0,0,0,23.2,16a26.42449,26.42449,0,0,0-.224-3.2h5.408A13.187,13.187,0,0,1,28.8,16a13.187,13.187,0,0,1-.416,3.2Z"/></svg>