<svg xmlns="http://www.w3.org/2000/svg" viewBox="0 0 32 22.54545"><path d="M31.33133,8.24778a4.02085,4.02085,0,0,0-2.82912-2.8475C26.00668,4.72727,16,4.72727,16,4.72727s-10.00668,0-12.50221.673A4.02088,4.02088,0,0,0,.66868,8.24778,42.179,42.179,0,0,0,0,16a42.17929,42.17929,0,0,0,.66868,7.75223A4.02086,4.02086,0,0,0,3.4978,26.5997c2.49553.673,12.50221.673,12.50221.673s10.00667,0,12.5022-.673a4.02082,4.02082,0,0,0,2.82912-2.84748A42.1799,42.1799,0,0,0,32,16,42.17967,42.17967,0,0,0,31.33133,8.24778ZM12.72727,20.758V11.242l8.36364,4.75811Z" transform="translate(0 -4.72727)"/></svg>